<svg xmlns="http://www.w3.org/2000/svg" width="162" height="35" viewBox="0 0 162 35" fill="none">
  <path fill-rule="evenodd" clip-rule="evenodd" d="M80.5203 6.11788C79.7221 5.05626 78.1298 5.05341 77.3277 6.11215L58.6303 30.7923C57.6324 32.1095 58.572 34 60.2245 34H65.3801C66.0013 34 66.5872 33.7114 66.9657 33.2189L71.0543 27.8998C71.4329 27.4073 72.0188 27.1186 72.64 27.1186H85.1048C85.7251 27.1186 86.3103 27.4065 86.689 27.8979L90.7908 33.2208C91.1694 33.7122 91.7547 34 92.375 34H97.4801C99.1294 34 100.07 32.1162 99.0786 30.798L80.5203 6.11788ZM79.5336 18.8159C79.1766 18.3702 78.4952 18.3807 78.152 18.8371C77.7186 19.4136 78.1299 20.2373 78.8511 20.2373H78.8858C79.6054 20.2373 80.0053 19.4046 79.5553 18.843L79.5336 18.8159Z" fill="black" stroke="white"/>
  <path d="M120.759 6.73373C120.38 6.26934 119.811 6 119.211 6H103.201C101.535 6 100.599 7.91842 101.625 9.23147L120.38 33.2315C120.759 33.7165 121.34 34 121.956 34H155.566C157.236 34 158.17 32.0752 157.138 30.7631L142.629 12.3272C142.25 11.8454 141.671 11.5641 141.058 11.5641H131.527C129.87 11.5641 128.932 13.4632 129.938 14.7792L133.077 18.8829C133.456 19.3776 134.043 19.6678 134.666 19.6678H135.838C136.461 19.6678 137.048 19.9579 137.426 20.4525L140.355 24.2799C140.858 24.9379 140.389 25.8876 139.561 25.8876H125.874C125.262 25.8876 124.683 25.6067 124.303 25.1253L116.332 15.0078C115.815 14.3519 116.282 13.389 117.117 13.389H121.983C123.671 13.389 124.6 11.4286 123.531 10.1227L120.759 6.73373Z" fill="black" stroke="white"/>
  <path d="M26.5422 3.68565C25.7002 2.79831 24.266 2.868 23.514 3.83279L2.51728 30.7705C1.49353 32.0839 2.42943 34 4.0947 34H9.16619C9.78276 34 10.3649 33.7156 10.7438 33.2293L24.8036 15.1848C25.1796 14.7022 25.897 14.6673 26.318 15.1113L31.3441 20.4109C31.8178 20.9104 32.5152 21.1312 33.19 20.9953L39.1276 19.7998C39.5843 19.7078 39.9075 20.2353 39.6183 20.6004L31.5718 30.7581C30.5333 32.0692 31.467 34 33.1396 34H38.1246C38.7425 34 39.3257 33.7144 39.7046 33.2262L56.2798 11.8692C57.4132 10.4088 56.1285 8.32432 54.3145 8.68043L35.9779 12.2803C35.3059 12.4122 34.6132 12.1911 34.1418 11.6944L26.5422 3.68565Z" fill="black" stroke="white"/>
  <path fill-rule="evenodd" clip-rule="evenodd" d="M85.2493 4.11788C84.4511 3.05626 82.8588 3.05341 82.0567 4.11215L63.3593 28.7923C62.3614 30.1095 63.301 32 64.9535 32H70.1091C70.7303 32 71.3162 31.7114 71.6948 31.2189L75.7833 25.8998C76.1619 25.4073 76.7478 25.1186 77.369 25.1186H89.8338C90.4541 25.1186 91.0393 25.4065 91.418 25.8979L95.5198 31.2208C95.8985 31.7122 96.4837 32 97.104 32H102.209C103.858 32 104.799 30.1162 103.808 28.798L85.2493 4.11788ZM84.2626 16.8159C83.9056 16.3702 83.2242 16.3807 82.881 16.8371C82.4477 17.4136 82.8589 18.2373 83.5801 18.2373H83.6148C84.3344 18.2373 84.7343 17.4046 84.2843 16.843L84.2626 16.8159Z" fill="white"/>
  <path d="M122.656 4.74109C122.277 4.27232 121.706 4 121.102 4H105.277C103.615 4 102.678 5.90964 103.695 7.22406L122.269 31.2241C122.648 31.7135 123.232 32 123.851 32H157.106C158.771 32 159.707 30.084 158.683 28.7706L144.315 10.3346C143.936 9.84838 143.354 9.56407 142.737 9.56407H133.329C131.677 9.56407 130.737 11.4545 131.735 12.7718L134.844 16.8755C135.222 17.3746 135.812 17.6678 136.438 17.6678H137.568C138.194 17.6678 138.784 17.9609 139.162 18.4599L142.059 22.2836C142.559 22.9422 142.089 23.8876 141.262 23.8876H127.731C127.115 23.8876 126.533 23.6036 126.154 23.1179L118.263 13.0041C117.75 12.3475 118.218 11.389 119.051 11.389H123.848C125.53 11.389 126.461 9.43758 125.402 8.13005L122.656 4.74109Z" fill="white"/>
  <path d="M31.1897 1.68565C30.3477 0.798314 28.9135 0.868001 28.1615 1.83279L7.16474 28.7705C6.14099 30.0839 7.07689 32 8.74216 32H13.8136C14.4302 32 15.0123 31.7156 15.3913 31.2293L29.451 13.1848C29.8271 12.7022 30.5444 12.6673 30.9654 13.1113L35.9915 18.4109C36.4653 18.9104 37.1626 19.1312 37.8375 18.9953L43.7751 17.7998C44.2317 17.7078 44.5549 18.2353 44.2657 18.6004L36.2193 28.7581C35.1807 30.0692 36.1145 32 37.787 32H42.772C43.39 32 43.9732 31.7144 44.352 31.2262L60.9273 9.8692C62.0607 8.40883 60.776 6.32432 58.962 6.68043L40.6253 10.2803C39.9534 10.4122 39.2606 10.1911 38.7893 9.69439L31.1897 1.68565Z" fill="white"/>
</svg>