<svg width="300" height="185" viewBox="0 0 300 185" fill="none" xmlns="http://www.w3.org/2000/svg">
<rect width="300" height="185" fill="white"/>
<rect width="300" height="185" fill="black" fill-opacity="0.07"/>
<path d="M162.426 97.3143H164.225C165.954 97.3143 166.819 97.3143 167.295 96.9538C167.71 96.6398 167.967 96.1598 167.998 95.6402C168.034 95.0437 167.554 94.3244 166.595 92.8859L161.236 84.847C160.444 83.6583 160.047 83.064 159.548 82.8569C159.111 82.6758 158.621 82.6758 158.184 82.8569C157.685 83.064 157.288 83.6583 156.496 84.847L155.171 86.8343M162.426 97.3143L148.746 77.5537C147.959 76.4172 147.566 75.849 147.074 75.6493C146.645 75.4745 146.164 75.4745 145.734 75.6493C145.242 75.849 144.849 76.4172 144.062 77.5537L133.476 92.8445C132.474 94.2924 131.973 95.0163 132.001 95.6183C132.026 96.1426 132.281 96.6293 132.698 96.9482C133.177 97.3143 134.057 97.3143 135.818 97.3143H162.426ZM165.987 70.6103C165.987 73.56 163.596 75.9511 160.646 75.9511C157.697 75.9511 155.305 73.56 155.305 70.6103C155.305 67.6607 157.697 65.2695 160.646 65.2695C163.596 65.2695 165.987 67.6607 165.987 70.6103Z" stroke="black" stroke-width="2" strokeLinecap ="round" strokeLinejoin="round"/>
<path d="M130.757 108.003V116.73H129.547L125.11 110.33H125.029V116.73H123.713V108.003H124.931L129.372 114.412H129.453V108.003H130.757ZM135.332 116.863C134.719 116.863 134.183 116.722 133.726 116.441C133.268 116.159 132.913 115.766 132.661 115.26C132.408 114.755 132.281 114.164 132.281 113.488C132.281 112.809 132.408 112.215 132.661 111.706C132.913 111.198 133.268 110.803 133.726 110.522C134.183 110.24 134.719 110.1 135.332 110.1C135.946 110.1 136.482 110.24 136.939 110.522C137.396 110.803 137.751 111.198 138.004 111.706C138.257 112.215 138.384 112.809 138.384 113.488C138.384 114.164 138.257 114.755 138.004 115.26C137.751 115.766 137.396 116.159 136.939 116.441C136.482 116.722 135.946 116.863 135.332 116.863ZM135.337 115.793C135.734 115.793 136.064 115.688 136.325 115.478C136.587 115.267 136.78 114.988 136.905 114.638C137.033 114.289 137.097 113.904 137.097 113.483C137.097 113.066 137.033 112.682 136.905 112.333C136.78 111.98 136.587 111.698 136.325 111.485C136.064 111.272 135.734 111.165 135.337 111.165C134.936 111.165 134.604 111.272 134.339 111.485C134.078 111.698 133.884 111.98 133.756 112.333C133.631 112.682 133.568 113.066 133.568 113.483C133.568 113.904 133.631 114.289 133.756 114.638C133.884 114.988 134.078 115.267 134.339 115.478C134.604 115.688 134.936 115.793 135.337 115.793ZM144.401 108.003V116.73H143.084V108.003H144.401ZM146.216 116.73V110.185H147.439V111.25H147.52C147.656 110.89 147.879 110.608 148.189 110.407C148.499 110.202 148.869 110.1 149.301 110.1C149.739 110.1 150.105 110.202 150.401 110.407C150.699 110.611 150.919 110.892 151.061 111.25H151.129C151.286 110.901 151.534 110.623 151.875 110.415C152.216 110.205 152.622 110.1 153.094 110.1C153.688 110.1 154.172 110.286 154.547 110.658C154.925 111.03 155.114 111.591 155.114 112.341V116.73H153.839V112.461C153.839 112.017 153.719 111.696 153.477 111.498C153.236 111.299 152.947 111.199 152.612 111.199C152.197 111.199 151.875 111.327 151.645 111.583C151.415 111.836 151.3 112.161 151.3 112.559V116.73H150.03V112.38C150.03 112.025 149.919 111.739 149.697 111.523C149.476 111.307 149.188 111.199 148.832 111.199C148.591 111.199 148.368 111.263 148.163 111.391C147.962 111.516 147.798 111.691 147.673 111.915C147.551 112.14 147.49 112.4 147.49 112.695V116.73H146.216ZM158.726 116.875C158.311 116.875 157.936 116.799 157.601 116.645C157.266 116.489 157 116.263 156.804 115.968C156.611 115.672 156.515 115.31 156.515 114.881C156.515 114.512 156.586 114.208 156.728 113.969C156.87 113.73 157.061 113.542 157.303 113.402C157.544 113.263 157.814 113.158 158.113 113.087C158.411 113.016 158.715 112.962 159.025 112.925C159.417 112.88 159.735 112.843 159.979 112.814C160.223 112.783 160.401 112.733 160.512 112.665C160.623 112.597 160.678 112.486 160.678 112.333V112.303C160.678 111.931 160.573 111.642 160.363 111.438C160.155 111.233 159.846 111.131 159.434 111.131C159.005 111.131 158.667 111.226 158.419 111.417C158.175 111.604 158.006 111.813 157.912 112.043L156.715 111.77C156.857 111.373 157.064 111.051 157.337 110.807C157.613 110.56 157.929 110.381 158.287 110.27C158.645 110.157 159.022 110.1 159.417 110.1C159.678 110.1 159.955 110.131 160.248 110.194C160.543 110.253 160.819 110.364 161.074 110.526C161.333 110.688 161.544 110.919 161.709 111.221C161.874 111.519 161.956 111.907 161.956 112.384V116.73H160.712V115.836H160.661C160.578 116 160.455 116.162 160.29 116.321C160.125 116.48 159.914 116.613 159.655 116.718C159.397 116.823 159.087 116.875 158.726 116.875ZM159.003 115.853C159.355 115.853 159.657 115.783 159.907 115.644C160.159 115.505 160.351 115.323 160.482 115.098C160.615 114.871 160.682 114.628 160.682 114.37V113.526C160.637 113.571 160.549 113.614 160.418 113.654C160.29 113.691 160.144 113.723 159.979 113.752C159.814 113.777 159.654 113.801 159.498 113.824C159.341 113.844 159.211 113.861 159.105 113.875C158.858 113.907 158.632 113.959 158.428 114.033C158.226 114.107 158.064 114.213 157.942 114.353C157.823 114.489 157.763 114.671 157.763 114.898C157.763 115.213 157.88 115.452 158.113 115.614C158.346 115.773 158.642 115.853 159.003 115.853ZM166.398 119.321C165.878 119.321 165.43 119.253 165.055 119.117C164.683 118.98 164.379 118.8 164.143 118.576C163.908 118.351 163.732 118.105 163.615 117.838L164.71 117.387C164.787 117.512 164.889 117.644 165.017 117.783C165.148 117.925 165.324 118.046 165.545 118.145C165.77 118.245 166.058 118.294 166.411 118.294C166.893 118.294 167.293 118.176 167.608 117.941C167.923 117.708 168.081 117.336 168.081 116.824V115.537H168C167.923 115.676 167.813 115.831 167.668 116.002C167.526 116.172 167.33 116.32 167.08 116.445C166.83 116.57 166.504 116.632 166.104 116.632C165.587 116.632 165.121 116.512 164.706 116.27C164.294 116.026 163.967 115.667 163.726 115.192C163.487 114.715 163.368 114.128 163.368 113.432C163.368 112.736 163.486 112.14 163.722 111.642C163.96 111.145 164.287 110.765 164.702 110.5C165.116 110.233 165.587 110.1 166.112 110.1C166.518 110.1 166.847 110.168 167.097 110.304C167.347 110.438 167.541 110.594 167.68 110.773C167.822 110.952 167.932 111.11 168.009 111.246H168.102V110.185H169.351V116.875C169.351 117.438 169.22 117.9 168.959 118.26C168.697 118.621 168.344 118.888 167.898 119.061C167.455 119.235 166.955 119.321 166.398 119.321ZM166.385 115.576C166.751 115.576 167.061 115.49 167.314 115.32C167.57 115.147 167.763 114.9 167.893 114.578C168.027 114.255 168.094 113.867 168.094 113.415C168.094 112.975 168.028 112.587 167.898 112.252C167.767 111.917 167.575 111.655 167.322 111.468C167.07 111.277 166.757 111.182 166.385 111.182C166.001 111.182 165.682 111.282 165.426 111.48C165.17 111.676 164.977 111.944 164.847 112.282C164.719 112.62 164.655 112.998 164.655 113.415C164.655 113.844 164.72 114.221 164.851 114.544C164.982 114.868 165.175 115.121 165.43 115.303C165.689 115.485 166.007 115.576 166.385 115.576ZM173.881 116.863C173.236 116.863 172.68 116.725 172.214 116.449C171.751 116.171 171.393 115.78 171.141 115.277C170.891 114.772 170.766 114.179 170.766 113.5C170.766 112.83 170.891 112.239 171.141 111.728C171.393 111.216 171.746 110.817 172.197 110.53C172.652 110.243 173.183 110.1 173.791 110.1C174.161 110.1 174.518 110.161 174.865 110.283C175.212 110.405 175.523 110.597 175.798 110.858C176.074 111.12 176.291 111.459 176.45 111.877C176.609 112.292 176.689 112.796 176.689 113.39V113.841H171.486V112.887H175.44C175.44 112.551 175.372 112.255 175.236 111.996C175.099 111.735 174.908 111.529 174.661 111.378C174.416 111.228 174.129 111.152 173.8 111.152C173.442 111.152 173.129 111.24 172.862 111.417C172.598 111.59 172.393 111.817 172.249 112.098C172.107 112.377 172.036 112.679 172.036 113.006V113.752C172.036 114.189 172.112 114.561 172.266 114.868C172.422 115.175 172.639 115.409 172.918 115.571C173.196 115.73 173.521 115.81 173.893 115.81C174.135 115.81 174.355 115.776 174.554 115.708C174.753 115.637 174.925 115.532 175.07 115.392C175.214 115.253 175.325 115.081 175.402 114.877L176.608 115.094C176.511 115.449 176.338 115.76 176.088 116.027C175.841 116.292 175.53 116.498 175.155 116.645C174.783 116.79 174.358 116.863 173.881 116.863Z" fill="black" fill-opacity="0.3"/>
</svg>
