<svg xmlns="http://www.w3.org/2000/svg" width="46" height="40" viewBox="0 0 46 40" fill="none">
  <path d="M4.19993 2C3.08604 2 2.01777 2.44369 1.23013 3.23348C0.442495 4.02327 9.96718e-07 5.09445 8.99073e-07 6.21138L0 16.4956C-9.7645e-08 17.6125 0.442494 18.6837 1.23013 19.4735C2.01777 20.2633 3.08604 20.707 4.19993 20.707H8.02943C9.134 20.707 10.0347 21.603 9.97614 22.706C9.93294 23.5196 9.86368 24.3333 9.76903 25.1458C9.50864 26.7124 9.07184 28.1064 8.46705 29.3234C7.85806 30.5447 7.07687 31.5007 6.11929 32.1998C5.6304 32.6015 5.07303 32.9002 4.44662 33.0959C3.39231 33.4253 2.47376 34.2702 2.47376 35.3748L2.47376 37.9024C2.47376 39.007 3.37323 39.9201 4.46843 39.7765C6.08664 39.5643 7.54868 39.0841 8.85765 38.3358C10.6687 37.302 12.2258 35.8745 13.4146 34.1581C14.6077 32.2659 15.487 30.1923 16.0185 28.0179C16.5541 25.6184 16.8161 23.1657 16.7997 20.707V6.21138C16.7997 5.09445 16.3572 4.02327 15.5696 3.23348C14.7819 2.4437 13.7137 2 12.5998 2L4.19993 2ZM29.3995 2C28.2856 2 27.2173 2.4437 26.4297 3.23348C25.6421 4.02327 25.1996 5.09445 25.1996 6.21138L25.1996 16.4956C25.1996 17.6125 25.6421 18.6837 26.4297 19.4735C27.2173 20.2633 28.2856 20.707 29.3995 20.707H33.229C34.3336 20.707 35.2343 21.603 35.1757 22.706C35.1325 23.5196 35.0632 24.3333 34.9686 25.1458C34.7082 26.7124 34.2714 28.1064 33.6666 29.3235C33.0576 30.5448 32.2764 31.5007 31.3189 32.1998C30.83 32.6015 30.2726 32.9002 29.6462 33.0959C28.5919 33.4253 27.6733 34.2702 27.6733 35.3748V37.9024C27.6733 39.007 28.5728 39.9201 29.668 39.7765C31.2862 39.5643 32.7482 39.0841 34.0572 38.3358C35.8683 37.302 37.4254 35.8745 38.6141 34.1581C39.8072 32.2659 40.6866 30.1923 41.2181 28.0179C41.7536 25.6184 42.0157 23.1657 41.9993 20.707V6.21138C41.9993 5.09446 41.5568 4.02327 40.7691 3.23349C39.9815 2.4437 38.9132 2 37.7993 2L29.3995 2Z" fill="black" fill-opacity="0.25"/>
  <path d="M8.19993 0C7.08604 -9.73789e-08 6.01777 0.443695 5.23013 1.23348C4.44249 2.02327 4 3.09445 4 4.21138L4 14.4956C4 15.6125 4.44249 16.6837 5.23013 17.4735C6.01777 18.2633 7.08604 18.707 8.19993 18.707H12.0294C13.134 18.707 14.0347 19.603 13.9761 20.706C13.9329 21.5196 13.8637 22.3333 13.769 23.1458C13.5086 24.7124 13.0718 26.1064 12.4671 27.3234C11.8581 28.5447 11.0769 29.5007 10.1193 30.1998C9.6304 30.6015 9.07303 30.9002 8.44662 31.0959C7.39231 31.4253 6.47376 32.2702 6.47376 33.3748L6.47376 35.9024C6.47376 37.007 7.37323 37.9201 8.46843 37.7765C10.0866 37.5643 11.5487 37.0841 12.8576 36.3358C14.6687 35.302 16.2258 33.8745 17.4146 32.1581C18.6077 30.2659 19.487 28.1923 20.0185 26.0179C20.5541 23.6184 20.8161 21.1657 20.7997 18.707V4.21138C20.7997 3.09445 20.3572 2.02327 19.5696 1.23348C18.7819 0.443696 17.7137 8.31719e-07 16.5998 7.34339e-07L8.19993 0ZM33.3995 2.20302e-06C32.2856 2.10564e-06 31.2173 0.443697 30.4297 1.23348C29.6421 2.02327 29.1996 3.09445 29.1996 4.21138L29.1996 14.4956C29.1996 15.6125 29.6421 16.6837 30.4297 17.4735C31.2173 18.2633 32.2856 18.707 33.3995 18.707H37.229C38.3336 18.707 39.2343 19.603 39.1757 20.706C39.1325 21.5196 39.0632 22.3333 38.9686 23.1458C38.7082 24.7124 38.2714 26.1064 37.6666 27.3235C37.0576 28.5448 36.2764 29.5007 35.3189 30.1998C34.83 30.6015 34.2726 30.9002 33.6462 31.0959C32.5919 31.4253 31.6733 32.2702 31.6733 33.3748V35.9024C31.6733 37.007 32.5728 37.9201 33.668 37.7765C35.2862 37.5643 36.7482 37.0841 38.0572 36.3358C39.8683 35.302 41.4254 33.8745 42.6141 32.1581C43.8072 30.2659 44.6866 28.1923 45.2181 26.0179C45.7536 23.6184 46.0157 21.1657 45.9993 18.707V4.21138C45.9993 3.09446 45.5568 2.02327 44.7691 1.23349C43.9815 0.443698 42.9132 3.03473e-06 41.7993 2.93735e-06L33.3995 2.20302e-06Z" fill="white"/>
  <path d="M14.2623 23.2277C14.2636 23.2197 14.2647 23.2117 14.2657 23.2036C14.3615 22.3809 14.4317 21.5567 14.4754 20.7325C14.5501 19.3259 13.4027 18.207 12.0294 18.207H8.19993C7.21909 18.207 6.27814 17.8163 5.58417 17.1204C4.89014 16.4245 4.5 15.4803 4.5 14.4956L4.5 4.21138C4.5 3.22662 4.89015 2.28247 5.58417 1.58655C6.27814 0.890685 7.21909 0.5 8.19993 0.5L16.5998 0.500001C17.5806 0.500001 18.5216 0.890686 19.2155 1.58656C19.9096 2.28247 20.2997 3.22662 20.2997 4.21138L20.2997 18.707L20.2997 18.7103C20.3159 21.1297 20.0582 23.543 19.5316 25.9041C19.0137 28.0208 18.1579 30.0396 16.9974 31.8823C15.8519 33.5333 14.3528 34.9066 12.6098 35.9016L12.6095 35.9017C11.3614 36.6152 9.9624 37.0763 8.40343 37.2807C7.65312 37.3791 6.97376 36.7528 6.97376 35.9024L6.97376 33.3748C6.97376 32.5749 7.65445 31.8672 8.59572 31.5732C9.2766 31.3604 9.88785 31.0347 10.4256 30.5953C11.4514 29.8433 12.2775 28.8241 12.9145 27.5466L12.9148 27.5459C13.5447 26.2784 13.9949 24.836 14.2623 23.2277ZM39.4618 23.2277C39.4632 23.2197 39.4643 23.2117 39.4652 23.2036C39.5611 22.3809 39.6312 21.5567 39.675 20.7325C39.7497 19.3259 38.6023 18.207 37.229 18.207H33.3995C32.4186 18.207 31.4777 17.8163 30.7837 17.1204C30.0897 16.4245 29.6996 15.4803 29.6996 14.4956L29.6996 4.21138C29.6996 3.22662 30.0897 2.28247 30.7837 1.58656C31.4777 0.890688 32.4186 0.500002 33.3995 0.500002L41.7993 0.500003C42.7802 0.500003 43.7211 0.890688 44.4151 1.58656C45.1091 2.28247 45.4993 3.22662 45.4993 4.21138L45.4993 18.707L45.4993 18.7103C45.5155 21.1296 45.2578 23.5429 44.7312 25.9039C44.2133 28.0207 43.3575 30.0395 42.1969 31.8823C41.0514 33.5334 39.5523 34.9066 37.8093 35.9016L37.8091 35.9017C36.561 36.6152 35.162 37.0763 33.603 37.2807C32.8527 37.3791 32.1733 36.7528 32.1733 35.9024V33.3748C32.1733 32.5749 32.854 31.8672 33.7953 31.5732C34.4762 31.3604 35.0874 31.0347 35.6251 30.5953C36.6509 29.8433 37.477 28.8241 38.1141 27.5466L38.1144 27.546C38.7442 26.2784 39.1945 24.836 39.4618 23.2277Z" stroke="black" stroke-opacity="0.2" strokeLinejoin="round"/>
</svg>