<svg xmlns="http://www.w3.org/2000/svg" width="50" height="46" viewBox="0 0 50 46" fill="none">
  <path d="M4.99992 0.878044C3.67385 0.878044 2.40211 1.40626 1.46445 2.34648C0.526783 3.2867 3.62263e-06 4.56192 3.50639e-06 5.89159L2.43606e-06 18.1347C2.31982e-06 19.4644 0.526781 20.7396 1.46445 21.6798C2.40211 22.62 3.67385 23.1482 4.99991 23.1482L11.9398 23.1482C11.9398 24.908 11.8348 26.6728 11.6298 28.4325C11.3198 30.2976 10.7998 31.957 10.0798 33.406C9.35484 34.8599 8.42486 35.998 7.28487 36.8302C6.1499 37.7627 4.70491 38.229 2.94495 38.229L2.94495 46C5.8399 46 8.36986 45.3783 10.5448 44.135C12.7008 42.9042 14.5545 41.2048 15.9697 39.1615C17.3901 36.9089 18.437 34.4403 19.0697 31.8518C19.7072 28.9952 20.0192 26.0754 19.9997 23.1482L19.9997 5.8916C19.9997 4.56192 19.4729 3.28671 18.5352 2.34648C17.5976 1.40626 16.3258 0.878045 14.9997 0.878045L4.99992 0.878044ZM34.9994 0.878047C33.6733 0.878047 32.4016 1.40626 31.4639 2.34648C30.5263 3.28671 29.9995 4.56192 29.9995 5.8916L29.9995 18.1347C29.9995 19.4644 30.5263 20.7396 31.4639 21.6798C32.4016 22.62 33.6733 23.1482 34.9994 23.1482L41.9393 23.1482C41.9393 24.908 41.8343 26.6728 41.6293 28.4325C41.3193 30.2976 40.7993 31.957 40.0793 33.406C39.3543 34.8599 38.4243 35.998 37.2844 36.8302C36.1494 37.7627 34.7044 38.229 32.9444 38.229L32.9444 46C35.8394 46 38.3693 45.3783 40.5443 44.135C42.7003 42.9042 44.554 41.2048 45.9692 39.1615C47.3896 36.9089 48.4364 34.4403 49.0692 31.8518C49.7067 28.9952 50.0187 26.0754 49.9991 23.1482L49.9991 5.8916C49.9991 4.56192 49.4724 3.28671 48.5347 2.34649C47.597 1.40626 46.3253 0.878048 44.9992 0.878048L34.9994 0.878047Z" fill="black" fill-opacity="0.2"/>
</svg>